<?xml version="1.0" encoding="iso-8859-1"?>
<!-- Uploaded to: SVG Repo, www.svgrepo.com, Generator: SVG Repo Mixer Tools -->
<svg xmlns="http://www.w3.org/2000/svg" xmlns:xlink="http://www.w3.org/1999/xlink" version="1.1" id="Layer_1"  viewBox="0 0 502.009 502.009" xml:space="preserve" width="512" height="512">
<g>
	<g>
		<path style="fill:#FBB03B;" d="M335.779,240.113h-1.572H213.214l79.85-164.41c0.919-1.926,1.832-4.171,2.49-6.266    c7.568-24.083-5.82-49.74-29.903-57.307c-24.082-7.568-49.74,5.82-57.308,29.903L140.38,258.315l-0.702,2.209    c-0.831,2.69-1.278,5.548-1.278,8.51c0,15.906,12.894,28.8,28.8,28.8h126.778l-58.53,172.41    c-2.673,7.845,0.929,16.612,8.608,20.21c8.237,3.86,18.044,0.311,21.904-7.926l95.02-202.776c1.647-3.554,2.63-7.634,2.63-11.809    C363.61,252.573,351.149,240.113,335.779,240.113z"/>
		<path d="M251.003,502.009c-3.757,0-7.57-0.803-11.191-2.5c-12.241-5.736-18.187-19.704-13.831-32.49l54.042-159.185H167.2    c-21.395,0-38.8-17.406-38.8-38.8c0-3.903,0.58-7.759,1.723-11.461l0.727-2.288l67.954-216.252    c4.461-14.195,14.183-25.804,27.375-32.688s28.276-8.218,42.471-3.757c14.195,4.46,25.805,14.182,32.688,27.375    c6.883,13.192,8.218,28.275,3.757,42.47c-0.757,2.41-1.824,5.1-3.005,7.574l-72.902,150.104h106.591    c20.86,0,37.831,16.971,37.831,37.831c0,5.454-1.229,10.99-3.557,16.013l-95.039,202.816    C270.517,496.368,260.96,502.009,251.003,502.009z M251.906,20.01c-5.674,0-11.302,1.368-16.476,4.067    c-8.456,4.412-14.688,11.854-17.547,20.953L149.92,261.313l-0.712,2.24c-0.528,1.711-0.808,3.582-0.808,5.481    c0,10.367,8.434,18.8,18.8,18.8h126.778c3.225,0,6.251,1.555,8.129,4.175s2.377,5.986,1.34,9.04l-58.53,172.41    c-1.066,3.128,0.389,6.538,3.382,7.94c3.232,1.513,7.092,0.117,8.606-3.114l95.021-202.776c1.096-2.366,1.685-4.996,1.685-7.566    c0-9.832-7.999-17.831-17.831-17.831H213.214c-3.445,0-6.648-1.773-8.476-4.694c-1.828-2.92-2.024-6.576-0.519-9.675l79.85-164.41    c0.747-1.567,1.468-3.375,1.945-4.895c2.859-9.1,2.004-18.767-2.408-27.223c-4.412-8.456-11.854-14.687-20.953-17.546    C259.122,20.56,255.504,20.01,251.906,20.01z"/>
	</g>
	<g>
		<path d="M203.007,173c-0.994,0-2.003-0.149-3.001-0.462c-5.269-1.656-8.198-7.269-6.542-12.538l24.026-76.459    c1.656-5.27,7.27-8.198,12.538-6.542s8.198,7.269,6.542,12.538l-24.026,76.459C211.202,170.266,207.259,173,203.007,173z"/>
	</g>
	<g>
		<path d="M236.631,66c-0.994,0-2.003-0.149-3-0.462c-5.269-1.656-8.198-7.269-6.542-12.538l3.137-9.982    c1.655-5.269,7.271-8.198,12.538-6.542c5.269,1.656,8.198,7.269,6.542,12.538l-3.137,9.982C244.826,63.266,240.882,66,236.631,66z    "/>
	</g>
</g>















</svg>